<?xml version="1.0" encoding="utf-8"?>
<!-- Generator: Adobe Illustrator 25.2.1, SVG Export Plug-In . SVG Version: 6.00 Build 0)  -->
<svg version="1.1" xmlns="http://www.w3.org/2000/svg" xmlns:xlink="http://www.w3.org/1999/xlink" x="0px" y="0px"
	 viewBox="0 0 100 125" style="enable-background:new 0 0 100 125;" xml:space="preserve">
<g id="Layer_2">
</g>
<g id="Layer_1">
	<g>
		<path d="M5273.1,2400.1v-2c0-2.8-5-4-9.7-4s-9.7,1.3-9.7,4v2c0,1.8,0.7,3.6,2,4.9l5,4.9c0.3,0.3,0.4,0.6,0.4,1v6.4
			c0,0.4,0.2,0.7,0.6,0.8l2.9,0.9c0.5,0.1,1-0.2,1-0.8v-7.2c0-0.4,0.2-0.7,0.4-1l5.1-5C5272.4,2403.7,5273.1,2401.9,5273.1,2400.1z
			 M5263.4,2400c-4.8,0-7.4-1.3-7.5-1.8l0,0c0.1-0.5,2.7-1.8,7.5-1.8s7.3,1.3,7.5,1.8C5270.7,2398.7,5268.2,2400,5263.4,2400z"/>
		<path d="M5268.4,2410.3c-0.6,0-1,0.4-1,1s0.4,1,1,1h4.3c0.6,0,1-0.4,1-1s-0.4-1-1-1H5268.4z"/>
		<path d="M5272.7,2413.7h-4.3c-0.6,0-1,0.4-1,1s0.4,1,1,1h4.3c0.6,0,1-0.4,1-1C5273.7,2414.1,5273.3,2413.7,5272.7,2413.7z"/>
		<path d="M5272.7,2417h-4.3c-0.6,0-1,0.4-1,1s0.4,1,1,1h4.3c0.6,0,1-0.4,1-1C5273.7,2417.5,5273.3,2417,5272.7,2417z"/>
	</g>
	<path d="M97.4,59L95,48.6c-0.5-2.1-2.3-3.7-4.4-3.9l-16.4-1.5L62,27.4c-0.7-0.9-1.8-1.5-3-1.5H23.7c-1.3,0-2.5,0.7-3.2,1.8
		l-9.8,15.7l-2.2,1.3c-3.7,2.3-6,6.4-6,10.8V61c0,1.7,1.4,3.2,3.2,3.2h6.1c0.5,5.5,5.1,9.9,10.7,9.9c5.7,0,10.3-4.4,10.7-9.9h33.6
		c0.5,5.5,5.1,9.9,10.7,9.9c5.7,0,10.3-4.4,10.7-9.9h5.1C96,64.1,98,61.7,97.4,59z M22.5,68.4c-2.8,0-5.2-2.3-5.2-5.2
		c0-2.8,2.3-5.2,5.2-5.2s5.2,2.3,5.2,5.2C27.6,66.1,25.3,68.4,22.5,68.4z M36.7,42.4H20.3l5.6-8.9h10.8V42.4z M44.2,42.4v-8.9h12.9
		l6.9,8.9H44.2z M77.5,68.4c-2.8,0-5.2-2.3-5.2-5.2c0-2.8,2.3-5.2,5.2-5.2c2.8,0,5.2,2.3,5.2,5.2C82.7,66.1,80.4,68.4,77.5,68.4z"/>
</g>
</svg>
