<svg xmlns="http://www.w3.org/2000/svg" viewBox="0 0 475.26 581.75"><defs><style>.cls-1{fill:#f7e2b2;}.cls-2{fill:#e27884;}.cls-3{stroke:#76868f;}.cls-10,.cls-3,.cls-8,.cls-9{stroke-miterlimit:10;}.cls-4{fill:#505050;}.cls-5,.cls-7{fill:#231f20;}.cls-6{font-size:14.78px;fill:#8d8c8c;}.cls-6,.cls-7{font-family:HelveticaNeue, Helvetica Neue;}.cls-7{font-size:20px;}.cls-10,.cls-8,.cls-9{fill:none;stroke:#716c6e;stroke-width:0.5px;}.cls-9{stroke-dasharray:2 2;}.cls-10{stroke-dasharray:2 2;}</style></defs><g id="Layer_2" data-name="Layer 2"><g id="Layer_1-2" data-name="Layer 1"><rect class="cls-1" x="130.46" y="50.14" width="20.84" height="78.66"/><rect class="cls-2" x="76.64" y="58.9" width="21.41" height="69.91"/><line class="cls-3" x1="66.19" y1="128.81" x2="161.57" y2="128.81"/><polygon class="cls-4" points="111.46 128.81 116.97 138.56 111.98 138.82 106.96 139.08 111.46 128.81"/><polygon class="cls-1" points="284.01 51.52 304.08 55.53 289.64 134.94 269.57 130.93 284.01 51.52"/><polygon class="cls-2" points="229.9 53.74 250.52 57.87 238.37 124.7 217.75 120.58 229.9 53.74"/><line class="cls-3" x1="207.69" y1="118.57" x2="299.53" y2="136.92"/><polygon class="cls-4" points="251.53 127.19 254.32 138.39 249.37 137.51 244.38 136.63 251.53 127.19"/><rect class="cls-1" x="385.11" y="89.48" width="79.38" height="21.03" rx="3.07" transform="translate(222.54 484.3) rotate(-75.64)"/><rect class="cls-2" x="337.51" y="81.88" width="66.81" height="21.61" rx="3.07" transform="translate(189.1 426.59) rotate(-75.64)"/><line class="cls-3" x1="341.94" y1="117.34" x2="435.18" y2="141.21"/><rect class="cls-1" x="128.54" y="197.91" width="20.84" height="78.66"/><rect class="cls-2" x="74.72" y="206.66" width="21.41" height="69.91"/><line class="cls-3" x1="64.27" y1="276.57" x2="159.65" y2="276.57"/><polygon class="cls-4" points="109.54 276.57 115.05 286.32 110.06 286.58 105.04 286.85 109.54 276.57"/><rect class="cls-1" x="101.97" y="377.03" width="78.66" height="20.84" transform="translate(-260.48 478.07) rotate(-83)"/><rect class="cls-2" x="52.68" y="375.64" width="69.91" height="21.41" transform="translate(-306.51 423.83) rotate(-83)"/><line class="cls-3" x1="62.38" y1="414.97" x2="157.05" y2="426.6"/><polygon class="cls-4" points="107.31 420.49 111.59 430.84 106.61 430.49 101.59 430.14 107.31 420.49"/><rect class="cls-1" x="127.02" y="481.81" width="20.84" height="78.66"/><rect class="cls-2" x="73.2" y="490.57" width="21.41" height="69.91"/><line class="cls-3" x1="62.75" y1="560.48" x2="158.13" y2="560.48"/><polygon class="cls-4" points="108.02 560.48 113.53 570.23 108.55 570.49 103.52 570.75 108.02 560.48"/><rect class="cls-1" x="242.78" y="519.08" width="78.66" height="20.84" transform="translate(-277.82 742.56) rotate(-83)"/><rect class="cls-2" x="193.49" y="516.61" width="69.91" height="21.41" transform="translate(-322.79 687.38) rotate(-83)"/><line class="cls-3" x1="203.18" y1="557.02" x2="297.85" y2="568.65"/><polygon class="cls-4" points="248.12 562.54 252.4 572.89 247.42 572.54 242.4 572.19 248.12 562.54"/><rect class="cls-1" x="236.4" y="221.31" width="96.04" height="20.84" transform="translate(-12.55 444.72) rotate(-75.13)"/><rect class="cls-2" x="195.77" y="222.5" width="69.91" height="21.41" transform="translate(-48.55 402.91) rotate(-76.95)"/><line class="cls-3" x1="198.89" y1="259.62" x2="288.52" y2="279.37"/><polygon class="cls-4" points="241.43 275.1 243.27 286.15 238.5 284.69 233.68 283.22 241.43 275.1"/><path class="cls-1" d="M461.33,183.87l12.48,7.76a3.07,3.07,0,0,1,1,4.23L418.53,283.1a3.09,3.09,0,0,1-4.24,1l-12.48-7.76a3.08,3.08,0,0,1-1-4.23L455,184.94C455.85,183.5,459.89,183,461.33,183.87Z" transform="translate(0 -2.41)"/><rect class="cls-2" x="348.99" y="221.54" width="58.81" height="21.41" rx="3.07" transform="translate(-2.26 458.36) rotate(-62.52)"/><line class="cls-3" x1="344.42" y1="245.6" x2="423.49" y2="286.07"/><path class="cls-1" d="M455.72,336.74,470.05,345a3.07,3.07,0,0,1,.83,4.26l-59.52,85.06a3.07,3.07,0,0,1-4.27.83l-12.18-8.21a3.07,3.07,0,0,1-.83-4.27l57.37-85.06A3.07,3.07,0,0,1,455.72,336.74Z" transform="translate(0 -2.41)"/><rect class="cls-2" x="342.76" y="364.29" width="62.91" height="21.41" rx="3.07" transform="translate(-145.93 473.12) rotate(-56)"/><line class="cls-3" x1="339.08" y1="386.83" x2="418.16" y2="440.16"/><rect class="cls-1" x="244.12" y="378.5" width="79.38" height="21.03" transform="translate(-163.45 565.02) rotate(-75.64)"/><rect class="cls-2" x="196.52" y="370.9" width="66.81" height="21.61" transform="translate(-196.89 507.32) rotate(-75.64)"/><line class="cls-3" x1="200.95" y1="406.35" x2="294.19" y2="430.23"/><polygon class="cls-4" points="245.47 417.62 247.65 428.77 242.62 427.59 237.54 426.41 245.47 417.62"/><rect class="cls-1" x="382.85" y="516.28" width="96.04" height="20.84" rx="3.07" transform="translate(-211.43 749.03) rotate(-70)"/><rect class="cls-2" x="341.15" y="509.96" width="69.91" height="21.41" rx="3.07" transform="translate(-241.8 693.59) rotate(-70)"/><line class="cls-3" x1="344.26" y1="543.86" x2="433.89" y2="576.49"/><path class="cls-5" d="M67.59,5.34h9.63V6.78h-7.9v5h7.4v1.44h-7.4v6.66H67.59Z" transform="translate(0 -2.41)"/><path class="cls-5" d="M79.47,4.55h1.65V6.74H79.47Zm0,4.79h1.65v10.5H79.47Z" transform="translate(0 -2.41)"/><path class="cls-5" d="M84.51,12.19c0-1.56,0-2.37,0-2.85H86.1c0,.31.06,1.08.06,2.21a4,4,0,0,1,3.76-2.46v1.59a3.56,3.56,0,0,0-3.76,3.94v5.22H84.51Z" transform="translate(0 -2.41)"/><path class="cls-5" d="M92.71,16.87a2.64,2.64,0,0,0,2.85,1.94c1.73,0,2.42-.73,2.42-1.76S97.47,15.5,95.24,15c-3.06-.7-3.73-1.59-3.73-3s1.15-2.9,3.88-2.9,3.91,1.53,4.06,3h-1.6a2.29,2.29,0,0,0-2.53-1.74c-1.68,0-2.17.77-2.17,1.51s.48,1.26,2.56,1.74c3.28.74,4,1.77,4,3.33,0,1.87-1.57,3.16-4.18,3.16s-4.16-1.34-4.45-3.22Z" transform="translate(0 -2.41)"/><path class="cls-5" d="M100.66,9.34h2V6.18h1.65V9.34h2.5v1.32h-2.5V17c0,1.07.26,1.64,1.28,1.64a4.58,4.58,0,0,0,1-.1v1.22A5,5,0,0,1,105,20c-1.62,0-2.39-.79-2.39-2.51V10.66h-2Z" transform="translate(0 -2.41)"/><path class="cls-5" d="M123,16.67a4.3,4.3,0,0,1-4.48,3.42c-3,0-4.86-2-4.86-5.45,0-2.94,1.72-5.55,5-5.55A4,4,0,0,1,123,12.55H121.4a2.6,2.6,0,0,0-2.73-2.12c-2.09,0-3.26,1.69-3.26,4.15s1.12,4.17,3.17,4.17a2.76,2.76,0,0,0,2.81-2.08Z" transform="translate(0 -2.41)"/><path class="cls-5" d="M127.06,4.55V11a3.77,3.77,0,0,1,3.51-1.87c1.71,0,3.73.87,3.73,4.05v6.7h-1.64V13.42c0-1.89-.86-2.94-2.55-2.94-2.05,0-3.05,1.26-3.05,3.58v5.78h-1.65V4.55Z" transform="translate(0 -2.41)"/><path class="cls-5" d="M137.67,4.55h1.65V6.74h-1.65Zm0,4.79h1.65v10.5h-1.65Z" transform="translate(0 -2.41)"/><path class="cls-5" d="M142.71,19.84V4.55h1.65V19.84Z" transform="translate(0 -2.41)"/><path class="cls-5" d="M156.72,4.55v12.3c0,1,0,2,0,3h-1.59a14.17,14.17,0,0,1-.08-1.58c-.55,1.15-1.71,1.83-3.56,1.83-2.85,0-4.59-2.2-4.59-5.39s1.88-5.61,4.92-5.61c2,0,2.92.8,3.23,1.41V4.55Zm-8.07,10.1c0,2.65,1.37,4.08,3.16,4.08,2.69,0,3.33-1.85,3.33-4.33s-.57-4-3.17-4C150,10.45,148.65,12,148.65,14.65Z" transform="translate(0 -2.41)"/><path class="cls-5" d="M200.33,13.71c.42,1.8,1.71,2.81,4,2.81,2.51,0,3.5-1.15,3.5-2.59s-.76-2.39-3.92-3.12c-3.47-.81-4.77-1.92-4.77-4s1.6-3.84,5-3.84c3.54,0,5,2,5.21,3.84h-1.78c-.3-1.38-1.22-2.45-3.5-2.45-2,0-3.07.85-3.07,2.31s.91,2,3.63,2.63c4.33,1,5.06,2.63,5.06,4.45,0,2.27-1.77,4.11-5.43,4.11-3.83,0-5.4-2-5.71-4.17Z" transform="translate(0 -2.41)"/><path class="cls-5" d="M213.36,12.72c0,2.32,1.25,3.89,3.21,3.89a2.73,2.73,0,0,0,2.83-1.74h1.67A4.39,4.39,0,0,1,216.51,18c-3.43,0-4.82-2.7-4.82-5.39,0-3.09,1.63-5.61,4.95-5.61,3.51,0,4.65,2.75,4.65,4.9,0,.31,0,.59,0,.87Zm6.25-1.17c0-1.84-1-3.31-3-3.31s-3,1.36-3.18,3.31Z" transform="translate(0 -2.41)"/><path class="cls-5" d="M232.47,14.53A4.28,4.28,0,0,1,228,18c-2.95,0-4.87-2-4.87-5.45,0-2.93,1.72-5.55,5-5.55a4,4,0,0,1,4.34,3.47h-1.64A2.6,2.6,0,0,0,228.1,8.3c-2.08,0-3.26,1.69-3.26,4.15S226,16.61,228,16.61a2.75,2.75,0,0,0,2.81-2.08Z" transform="translate(0 -2.41)"/><path class="cls-5" d="M244.3,12.43c0,3-1.79,5.52-5.14,5.52-3.1,0-5-2.33-5-5.49S236,7,239.28,7C242.31,7,244.3,9.14,244.3,12.43Zm-8.43,0c0,2.37,1.27,4.16,3.38,4.16s3.34-1.69,3.34-4.15S241.4,8.3,239.2,8.3,235.87,10,235.87,12.45Z" transform="translate(0 -2.41)"/><path class="cls-5" d="M246.87,9.85c0-.92,0-1.82,0-2.65h1.61c0,.32.07,1.51.06,1.82A3.53,3.53,0,0,1,252.06,7c2,0,3.7,1.16,3.7,4V17.7h-1.65V11.14c0-1.67-.7-2.79-2.47-2.79-2.26,0-3.12,1.69-3.12,3.86V17.7h-1.65Z" transform="translate(0 -2.41)"/><path class="cls-5" d="M268.11,2.41V14.72c0,1,0,2,0,3h-1.58c-.05-.27-.08-1.13-.09-1.58-.55,1.16-1.7,1.83-3.55,1.83-2.85,0-4.59-2.2-4.59-5.38S260.2,7,263.24,7c2,0,2.91.8,3.22,1.42v-6ZM260,12.52c0,2.64,1.37,4.07,3.16,4.07,2.69,0,3.34-1.84,3.34-4.32s-.57-4-3.17-4C261.33,8.31,260,9.84,260,12.52Z" transform="translate(0 -2.41)"/><path class="cls-5" d="M285.6,14.53A4.3,4.3,0,0,1,281.12,18c-2.95,0-4.86-2-4.86-5.45,0-2.93,1.71-5.55,5-5.55a4,4,0,0,1,4.35,3.47H284a2.6,2.6,0,0,0-2.73-2.12C279.14,8.3,278,10,278,12.45s1.13,4.16,3.18,4.16A2.75,2.75,0,0,0,284,14.53Z" transform="translate(0 -2.41)"/><path class="cls-5" d="M289.62,2.41V8.82A3.77,3.77,0,0,1,293.13,7c1.7,0,3.73.87,3.73,4.06V17.7h-1.65V11.28c0-1.88-.86-2.93-2.54-2.93-2.05,0-3.05,1.26-3.05,3.57V17.7H288V2.41Z" transform="translate(0 -2.41)"/><path class="cls-5" d="M300.23,2.41h1.65V4.6h-1.65Zm0,4.79h1.65V17.7h-1.65Z" transform="translate(0 -2.41)"/><path class="cls-5" d="M305.27,17.7V2.41h1.64V17.7Z" transform="translate(0 -2.41)"/><path class="cls-5" d="M319.28,2.41V14.72c0,1,0,2,0,3h-1.58c-.05-.27-.08-1.13-.09-1.58-.54,1.16-1.7,1.83-3.55,1.83-2.85,0-4.59-2.2-4.59-5.38S311.37,7,314.41,7c2,0,2.92.8,3.22,1.42v-6Zm-8.07,10.11c0,2.64,1.36,4.07,3.15,4.07,2.7,0,3.34-1.84,3.34-4.32s-.57-4-3.17-4C312.5,8.31,311.21,9.84,311.21,12.52Z" transform="translate(0 -2.41)"/><path class="cls-5" d="M362.72,4.65h-5V3.2h11.76V4.65h-5V17.7h-1.76Z" transform="translate(0 -2.41)"/><path class="cls-5" d="M372.86,2.41V8.82A3.8,3.8,0,0,1,376.38,7c1.7,0,3.72.87,3.72,4.06V17.7h-1.64V11.28c0-1.88-.86-2.93-2.54-2.93-2.05,0-3.06,1.26-3.06,3.57V17.7h-1.64V2.41Z" transform="translate(0 -2.41)"/><path class="cls-5" d="M383.48,2.41h1.65V4.6h-1.65Zm0,4.79h1.65V17.7h-1.65Z" transform="translate(0 -2.41)"/><path class="cls-5" d="M388.52,10.06c0-1.57,0-2.37,0-2.86h1.62c0,.31.05,1.09.05,2.21A4,4,0,0,1,393.93,7V8.54a3.57,3.57,0,0,0-3.77,4V17.7h-1.64Z" transform="translate(0 -2.41)"/><path class="cls-5" d="M404.83,2.41V14.72c0,1,0,2,0,3h-1.58c0-.27-.08-1.13-.09-1.58-.55,1.16-1.7,1.83-3.55,1.83-2.85,0-4.59-2.2-4.59-5.38S396.92,7,400,7c2,0,2.91.8,3.22,1.42v-6Zm-8.08,10.11c0,2.64,1.37,4.07,3.16,4.07,2.69,0,3.34-1.84,3.34-4.32s-.57-4-3.17-4C398.05,8.31,396.75,9.84,396.75,12.52Z" transform="translate(0 -2.41)"/><path class="cls-5" d="M422.32,14.53A4.3,4.3,0,0,1,417.84,18c-2.95,0-4.86-2-4.86-5.45C413,9.57,414.69,7,418,7a4,4,0,0,1,4.34,3.47h-1.65a2.6,2.6,0,0,0-2.73-2.12c-2.08,0-3.26,1.69-3.26,4.15s1.13,4.16,3.18,4.16a2.75,2.75,0,0,0,2.81-2.08Z" transform="translate(0 -2.41)"/><path class="cls-5" d="M426.33,2.41V8.82A3.8,3.8,0,0,1,429.85,7c1.7,0,3.73.87,3.73,4.06V17.7h-1.65V11.28c0-1.88-.86-2.93-2.54-2.93-2.05,0-3.06,1.26-3.06,3.57V17.7h-1.64V2.41Z" transform="translate(0 -2.41)"/><path class="cls-5" d="M437,2.41h1.65V4.6H437Zm0,4.79h1.65V17.7H437Z" transform="translate(0 -2.41)"/><path class="cls-5" d="M442,17.7V2.41h1.64V17.7Z" transform="translate(0 -2.41)"/><path class="cls-5" d="M456,2.41V14.72c0,1,0,2,0,3h-1.58c-.05-.27-.08-1.13-.09-1.58-.54,1.16-1.7,1.83-3.55,1.83-2.85,0-4.59-2.2-4.59-5.38S448.09,7,451.13,7c2,0,2.92.8,3.22,1.42v-6Zm-8.07,10.11c0,2.64,1.36,4.07,3.15,4.07,2.7,0,3.34-1.84,3.34-4.32s-.57-4-3.17-4C449.22,8.31,447.93,9.84,447.93,12.52Z" transform="translate(0 -2.41)"/><text class="cls-6" transform="translate(72.66 53.02)">100</text><text class="cls-6" transform="translate(224.48 48.68)">100</text><text class="cls-6" transform="translate(359.33 50.94)">100</text><text class="cls-6" transform="translate(71.97 202.65)">100</text><text class="cls-6" transform="translate(222.77 188.92)">100</text><text class="cls-6" transform="translate(374.47 193.04)">100</text><text class="cls-6" transform="translate(78.07 343.66)">100</text><text class="cls-6" transform="translate(223.41 339.96)">100</text><text class="cls-6" transform="translate(376.05 336.34)">100</text><text class="cls-6" transform="translate(70.22 485.16)">100</text><text class="cls-6" transform="translate(217.77 483.56)">100</text><text class="cls-6" transform="translate(371.53 478.53)">100</text><text class="cls-6" transform="translate(121.83 45.26)">105.2</text><text class="cls-6" transform="translate(125.28 192.69)">100</text><text class="cls-6" transform="translate(276.34 176.34)">151.9</text><text class="cls-6" transform="translate(281.11 46.11)">121</text><text class="cls-6" transform="translate(419.74 51.11)">127</text><text class="cls-6" transform="translate(433.97 175.3)">159.4</text><text class="cls-6" transform="translate(271.73 338.89)">130.3</text><text class="cls-6" transform="translate(267.45 481.43)">113.3</text><text class="cls-6" transform="translate(124.03 339.27)">113.7</text><text class="cls-6" transform="translate(118.75 477.11)">109.8</text><text class="cls-6" transform="translate(436.38 330.46)">158.4</text><text class="cls-6" transform="translate(421.49 471.6)">148.5</text><text class="cls-7" transform="translate(0 100.37)">1990</text><text class="cls-7" transform="translate(0.77 247.08)">2000</text><text class="cls-7" transform="translate(0.3 387.73)">2010</text><text class="cls-7" transform="translate(0.77 531.88)">2015</text><line class="cls-8" x1="185.07" y1="51.37" x2="185.07" y2="52.37"/><line class="cls-9" x1="185.07" y1="54.37" x2="185.07" y2="574.48"/><line class="cls-8" x1="185.07" y1="575.49" x2="185.07" y2="576.49"/><line class="cls-10" x1="332.74" y1="48.06" x2="332.74" y2="581.75"/><polygon class="cls-4" points="382.33 272.63 380.06 283.94 375.96 281.03 371.83 278.1 382.33 272.63"/><polygon class="cls-4" points="378.44 414.59 376.54 425.97 372.35 423.2 368.13 420.4 378.44 414.59"/><polygon class="cls-4" points="389.1 561.8 391.88 572.99 386.93 572.12 381.94 571.23 389.1 561.8"/><polygon class="cls-4" points="387.06 130.19 389.84 141.38 384.89 140.51 379.91 139.62 387.06 130.19"/></g></g></svg>