<svg xmlns="http://www.w3.org/2000/svg" viewBox="0 0 127.32 148.67"><defs><style>.cls-1{fill:#7a7b7d;}.cls-1,.cls-2,.cls-3{stroke:#010101;}.cls-1,.cls-2,.cls-3,.cls-5{stroke-miterlimit:10;stroke-width:0.25px;}.cls-2{fill:#f6e3bd;}.cls-3,.cls-5{fill:none;}.cls-4{fill:#010101;}.cls-5{stroke:#de7879;}</style></defs><g id="Layer_2" data-name="Layer 2"><g id="Layer_1-2" data-name="Layer 1"><g id="Layer_2-2" data-name="Layer 2"><path class="cls-1" d="M24.69,109.54c-5.17-.25-10.81-3.22-12.32-7.23S9.73,87.85,8.77,85.82,2.83,65.61,1.09,63.49-.19,47.66,3.78,41.26s9.41-14.9,9.64-16.79,4.82-3.23,6.52-4.17,6.48-10.68,9.72-11S46.73,3.68,48.45,2.74,54.07-.78,57.92.45s8.74,3.74,11.41,4.82,7.91-2.59,7.91-2.59a9,9,0,0,1,9.07,1.1c4.78,3.37,14.48,9.14,16.18,11.64s5.92,7.21,8,10.13,8.86,16,10.12,18.81,6.93,15.37,6.61,18-1.21,13.23-2,16.19S120,91.68,119,93.47s-6.2,5-7.65,7.09a73.28,73.28,0,0,1-6.44,6.86Z"/><path class="cls-2" d="M23.64,79.34s9.25-5.76,9.94-9.55-.18-13.35,1.85-15.26,7.75-6.37,9.87-7.19,6-4.86,8.67-6.47,5.78-4.53,10.78-6.39,6.76-3.18,9.32-1.35,7.44,4.33,10,9.22,5.94,6.81,6,9.48.41,13,1,14.59S99.82,77,102,79.15s.06,12.57.58,14.92,3.69,12.25.72,20.26-11.07,15.79-12.14,17.94-7,11.71-9.53,12.93-13.2,3.72-16.73,3.29-13.1-6.91-15.8-7.62S33.52,131,30.31,118,28,97.58,27.64,94.11,23.64,79.34,23.64,79.34Z"/><path class="cls-3" d="M65,81.53a6.14,6.14,0,0,1,.13-3.79"/><path class="cls-3" d="M65.75,81.32a5.64,5.64,0,0,1,.07-3.74"/><path class="cls-3" d="M66.38,81.27a7.55,7.55,0,0,1,.37-3.81"/><path class="cls-3" d="M67.09,81.13a15.9,15.9,0,0,1,.06-2.39A2.83,2.83,0,0,1,67.73,77"/><path class="cls-3" d="M67.77,81a14.17,14.17,0,0,1,0-2.16,4.54,4.54,0,0,1,.74-2"/><path class="cls-3" d="M68.33,80.32l.42-1.67a4.56,4.56,0,0,1,1.08-2.29"/><path class="cls-3" d="M69.18,80.16a4.71,4.71,0,0,1,.5-1.61l.79-1.75a1.65,1.65,0,0,1,.73-.94"/><path class="cls-3" d="M70.24,79.65a7.63,7.63,0,0,1,.44-2.11c.11-.24.24-.48.38-.72l.58-1"/><path class="cls-3" d="M71,79.46a7.91,7.91,0,0,1,1-3.7"/><path class="cls-3" d="M71.77,79.07a7.4,7.4,0,0,1,.51-2.87,1.82,1.82,0,0,1,.39-.67"/><path class="cls-3" d="M72.42,78.58a8.43,8.43,0,0,1,1.37-3.39"/><path class="cls-3" d="M72.19,77.59a5.88,5.88,0,0,1,1.22-2.35"/><path class="cls-3" d="M73,78.26a15.92,15.92,0,0,1,.86-2.2,2.69,2.69,0,0,1,.73-1"/><path class="cls-3" d="M73.88,78a6.29,6.29,0,0,1,1.4-3"/><path class="cls-3" d="M74.56,77.39A12.4,12.4,0,0,1,76,74.66"/><path class="cls-3" d="M75.4,77a5,5,0,0,1,1.52-2.52"/><path class="cls-3" d="M76.17,76.69A5.55,5.55,0,0,1,77.7,74.1"/><path class="cls-3" d="M76.69,76.54a6.93,6.93,0,0,1,1.72-2.47"/><path class="cls-3" d="M77.36,76.33a12.67,12.67,0,0,1,1.4-2.16"/><path class="cls-3" d="M78.43,75.43a3.44,3.44,0,0,1,1.3-1.24"/><path class="cls-3" d="M78.73,74.07a4.54,4.54,0,0,1,1-.48"/><path class="cls-3" d="M79.17,75.58a6.93,6.93,0,0,1,2.77-1.69"/><path class="cls-3" d="M79.15,74.18a5.24,5.24,0,0,1,1.79-.54"/><path class="cls-3" d="M79.31,74.75a13.86,13.86,0,0,1,2.15-1"/><path class="cls-3" d="M80,75.63A8.76,8.76,0,0,1,83.16,74"/><path class="cls-3" d="M80.79,75.67a6.6,6.6,0,0,1,3.14-1.52"/><path class="cls-3" d="M81.54,75.66a14.77,14.77,0,0,1,3.25-1.38"/><path class="cls-3" d="M82.56,75.57a14,14,0,0,1,3.26-.86"/><path class="cls-3" d="M83.57,75.6a14.25,14.25,0,0,1,2.85-.47"/><path class="cls-3" d="M84.9,75.69a8.06,8.06,0,0,1,2.3,0"/><path class="cls-3" d="M86.15,75.84a16.51,16.51,0,0,1,2.11,0"/><path class="cls-3" d="M48.1,83.18a5.28,5.28,0,0,0-.32-3.06.27.27,0,0,0-.11-.15.12.12,0,0,0-.17,0"/><path class="cls-3" d="M47.33,83a6.62,6.62,0,0,0-.63-3.36c-.05-.1-.21-.18-.23-.08"/><path class="cls-3" d="M46.57,83.41a10,10,0,0,0-.35-2.1,3,3,0,0,0-1-1.9c-.06,0-.18,0-.17,0"/><path class="cls-3" d="M45.76,79.36A4.71,4.71,0,0,1,46.92,83"/><path class="cls-3" d="M43.63,79.1a4.79,4.79,0,0,1,2.39,4"/><path class="cls-3" d="M45.22,82.69a5.21,5.21,0,0,0-2.06-3.52"/><path class="cls-3" d="M44.48,82.81A5.43,5.43,0,0,0,43.18,80a.89.89,0,0,0-.77-.4"/><path class="cls-3" d="M41.41,79.63a4.49,4.49,0,0,1,2,1.64,1.19,1.19,0,0,1,.38,1"/><path class="cls-3" d="M40.68,79.82a2.05,2.05,0,0,1,1.55.92l.71.79a1.8,1.8,0,0,1,.47.73"/><path class="cls-3" d="M42.41,82A6.33,6.33,0,0,0,40,79.77c-.12-.06-.31-.12-.39,0"/><path class="cls-3" d="M41.61,81.93A2.06,2.06,0,0,0,40.8,81a2.9,2.9,0,0,0-1.23-.91l-.79-.39"/><path class="cls-3" d="M40.69,81.91l-2.45-2c-.19-.15-.44-.31-.66-.21"/><path class="cls-3" d="M39.23,81.7a3.59,3.59,0,0,0-1.38-1.41,2.15,2.15,0,0,0-1.48-.55"/><path class="cls-3" d="M35.61,79.85a3.58,3.58,0,0,1,2.58,1.4"/><path class="cls-3" d="M34.31,80a12.28,12.28,0,0,1,3,1.24c.09.06.21.13.22.24"/><path class="cls-3" d="M33.52,80.42A4.8,4.8,0,0,1,36,81"/><path class="cls-3" d="M34.88,81.34a8.4,8.4,0,0,0-2.48-.44c-.07,0-.18,0-.14.11"/><path class="cls-3" d="M32.76,80.62a6,6,0,0,1,2.71.49c.06,0,.13.12.07.15"/><path class="cls-3" d="M31.49,81.44a14,14,0,0,1,2.33.08"/><path class="cls-3" d="M30.07,82.21a9.07,9.07,0,0,1,2.69-.3C31.84,82,30.92,82.21,30.07,82.21Z"/><path class="cls-3" d="M29.92,83.31a11.54,11.54,0,0,1,2-.84A1.69,1.69,0,0,0,29.92,83.31Z"/><path class="cls-3" d="M88.44,88.48c-4.14-2.43-9-3.23-13.83-4a3.34,3.34,0,0,0-1.26,0,2.92,2.92,0,0,0-1.18.71A16.34,16.34,0,0,0,68.59,89C75.11,88.5,81.67,88.39,88.44,88.48Z"/><path class="cls-4" d="M75.78,85.1a1.47,1.47,0,0,0-1.61,0,2.59,2.59,0,0,0-1,1.27.9.9,0,0,0,.1,1.08,2.79,2.79,0,0,0,3.59.65,1.55,1.55,0,0,0,.73-1.86,1.79,1.79,0,0,0-.7-.69C76.24,85.15,75.46,85,75.78,85.1Z"/><path class="cls-3" d="M50,91.79a10.71,10.71,0,0,0-7.33-3.31c-2,.08-3.55,1.73-4.85,3.23a50.06,50.06,0,0,0-4.54,5.57A18.75,18.75,0,0,1,44,93.45a13.09,13.09,0,0,0,2.5-.18A20.09,20.09,0,0,0,50,91.79Z"/><path class="cls-4" d="M43.92,89.47c-.66-.46-1.54-.92-2.24-.52a1.85,1.85,0,0,0-.61.69,2.26,2.26,0,0,0-.13,2.52,3,3,0,0,0,2.39.74c.61,0,1.33,0,1.67-.52a1.28,1.28,0,0,0,.19-.88C45.1,90.08,43.83,88.81,43.92,89.47Z"/><path class="cls-3" d="M57.17,69.88a32.22,32.22,0,0,1,21.56-4.06c.42.07.93.24,1,.64"/><path class="cls-3" d="M39.33,72.68A7.49,7.49,0,0,1,44.45,72"/><path class="cls-3" d="M41,67.26a46.21,46.21,0,0,1,15.15-3"/><path class="cls-3" d="M58.5,60.78A92.34,92.34,0,0,1,84,63"/><path class="cls-3" d="M65.85,57.34a69.3,69.3,0,0,1,15,1.38c.32.07.72.27.61.56"/><path class="cls-3" d="M40,63.1a24.41,24.41,0,0,1,8.65-3"/><path class="cls-3" d="M41,58.48a76.1,76.1,0,0,1,13.87-3c.89-.11,2-.12,2.47.61"/><path class="cls-3" d="M56.56,76.24a21,21,0,0,1,7.72-1.67"/><path class="cls-3" d="M71.71,94.41A17.26,17.26,0,0,0,87.47,93c.15-.1.31-.21.33-.38s-.17-.37-.32-.27"/><path class="cls-3" d="M48.93,96.62c-1.55,2.58-4.63,4.08-7.74,4.41A23.18,23.18,0,0,1,32,99.77"/><path class="cls-3" d="M51.84,86.4c1.7.81,2.15,2.9,2.38,4.7.7,5.26,1.35,10.81-.84,15.64-.63,1.37-1.46,2.64-2,4a6,6,0,0,0-.28,4.38c.55,1.41,2.11,2.52,4.92,1.3a2.15,2.15,0,0,1,3,1.42,4,4,0,0,0,.2,1.34c.44.8,1.66.65,2.57.38a3.63,3.63,0,0,0,2.3-1.41c.34-.63.24-1.42.57-2.06.6-1.15,2.27-1.3,3.58-1s2.63.88,4,.63"/><path class="cls-3" d="M63.6,85.52c-1.26,8.47,3,17.51,10.51,22.26a6.88,6.88,0,0,1,1.37,1,3.35,3.35,0,0,1,.74,2.82,4.44,4.44,0,0,1-3.84,3.48"/><path class="cls-3" d="M82.38,102.57a9.78,9.78,0,0,0,4.93-.91A9.2,9.2,0,0,0,89.22,100l3.9-4.14"/><path class="cls-3" d="M94.74,116.36a8,8,0,0,0,3.56-3.89,22.91,22.91,0,0,0,1.5-5.07l1.17-5.52c.08-.38.11-.88-.26-1.07"/><path class="cls-3" d="M33,110.28a9.17,9.17,0,0,0,5.83,1.83,27.21,27.21,0,0,0,6.15-.92,2.25,2.25,0,0,0,.85-.33"/><path class="cls-3" d="M49.05,110.84c-.77,4.29-5.39,6.91-7.26,10.87a2.88,2.88,0,0,0,0,2.93c1,1.26,3,.73,4.61,1.18"/><path class="cls-3" d="M79.53,108.87a81,81,0,0,1,10.14,7.9c1,.92,2.07,2.23,1.54,3.44a3.46,3.46,0,0,1-1.56,1.41,1.88,1.88,0,0,1-1.39.36"/><path class="cls-3" d="M89.69,125.85a5,5,0,0,1,3.92,3"/><path class="cls-3" d="M84.22,120.76a17.54,17.54,0,0,0-16.33,3.81c-5.77-2.25-12.07-2.09-15.88,1.35a100.59,100.59,0,0,0,13.56,0c1-.08,2.23-.26,2.74-1.13"/><path class="cls-3" d="M68,124.36c1.92.84,4.15.47,6.21.08l5.59-1c1.74-.33,3.78-.9,4.31-2.52"/><path class="cls-3" d="M84,121.64c-1.23,6.16-7.12,11.15-13.67,11.57a23.49,23.49,0,0,1-6.52-.63c-4.43-1-9.11-2.91-10-6.89,8.51,4.88,20.08,4.17,27.76-1.68A13.92,13.92,0,0,0,84,121.64Z"/><path class="cls-5" d="M55,124.91l1.9-.63a12.31,12.31,0,0,0-2.52.87l2.42-.88a4.7,4.7,0,0,0-3.13,1.2l2.47-1.09A8.54,8.54,0,0,0,53,125.49l2.43-1a7.14,7.14,0,0,0-2.61,1.07c.15-.11.38-.21.51-.08s-.23.32-.2.14a24.9,24.9,0,0,1,3.64-1.85l-2,.85,2.79-.77-1.39.41a5.41,5.41,0,0,0,1.61-.15l-1.95.31,2.8-.54-1.8.23,3.4-.35a18.56,18.56,0,0,1-2.69.1l2.63,0-3,.17,3-.24H58.05a7.26,7.26,0,0,0,2.82-.19l-3.15.25a12.5,12.5,0,0,0,3.29-.31l-2.85,0a6.66,6.66,0,0,0,2.27,0,6.08,6.08,0,0,0-2.65.21l1,0-2.17.48,2.4-.52L56.8,124a30.5,30.5,0,0,0,4.38-.29,7.5,7.5,0,0,1-2.27.25,17.85,17.85,0,0,1,3.43-.16,14.31,14.31,0,0,1-2.45,0l3.64.35a20.29,20.29,0,0,1-3.2-.5,7.42,7.42,0,0,1,2.8.54l-2.63-.46a13.83,13.83,0,0,1,4.09.56,9.87,9.87,0,0,1-4.47-.62l4.44.4-5.86.21a24.45,24.45,0,0,0,3.41.33l-5.06,0a7.47,7.47,0,0,0,3.26.07,36.17,36.17,0,0,0-5,.34,7.64,7.64,0,0,0,4.15-.7,9.06,9.06,0,0,0-3.2-.1,5.06,5.06,0,0,1,1.89-.69l-1,.38A9.34,9.34,0,0,1,60,124a20.38,20.38,0,0,1-3.56.7l3.8.16-4.8-.07,3.13.13a17.19,17.19,0,0,1-4.47.26l4.09,0a28.25,28.25,0,0,1-4,0l3.7.13-3.59,0a18.45,18.45,0,0,0,3.86,0l-4.27.06,8.08-.18a43.05,43.05,0,0,0-5.08,0,41.92,41.92,0,0,1,5.6.26,16.16,16.16,0,0,0-5-.41,18,18,0,0,0,4.69.36Q58.05,125,54,125a42.43,42.43,0,0,0,7.39.37,11.42,11.42,0,0,0-4.47-.22,26.6,26.6,0,0,0,5.35.15,15,15,0,0,0-3.41.06l6.13-.45H60.71l4,.31a47,47,0,0,0-5.81-.31,32.78,32.78,0,0,0,3.71-.14,28.89,28.89,0,0,1-5.58-.06l4.33-.34h-4.3a13.32,13.32,0,0,1,4.67-.08,13.18,13.18,0,0,1-4.06.22,28.25,28.25,0,0,0,4-.41,5.94,5.94,0,0,0-2.45.07,17.35,17.35,0,0,1,3.6-.32l-2.31-.08,3.63.1a10,10,0,0,1-3.37,0h2.79l-2.18-.09a8.38,8.38,0,0,1,2.87.13,6.11,6.11,0,0,1-2.84-.35,28.39,28.39,0,0,1,3.54.58,9.08,9.08,0,0,1-2.49-.29,6.18,6.18,0,0,1,4,1,33.91,33.91,0,0,0-5.23-.38l5,.28a21.91,21.91,0,0,0-4.58-.19,19.45,19.45,0,0,0,4.7.12,16.87,16.87,0,0,0-4.08.23,23,23,0,0,0,5-.52l-2.17.16a7.19,7.19,0,0,0,2.92-.22.9.9,0,0,0-.7.1,1.35,1.35,0,0,0,1.08,0,27.42,27.42,0,0,1-5.51.19l3.51,0c-1-.1-2-.16-3-.19a5.91,5.91,0,0,0,2.51.09l-2.32-.34a2.68,2.68,0,0,1,2.7.7,6.1,6.1,0,0,0-1.75-.34,9.37,9.37,0,0,1,3.29.37l-2.55-.08,1.91.17-5.53-.09a27,27,0,0,1,3.91.25c-1.78.14-3.56.21-5.34.22l3.76.09a58,58,0,0,1-7.91,0,15,15,0,0,0,6,.15c-1.55,0-3.11,0-4.67,0a64.4,64.4,0,0,0,9.32-.5l-3.23.47,3.26-.28a2.6,2.6,0,0,0-1.78.28,28.33,28.33,0,0,0,4.7-1.43l-1.59.33a16,16,0,0,0,2.61-.87h-.63"/><path class="cls-5" d="M70.51,123.12l2.52-.73-2.88.69L73,121.9a5.78,5.78,0,0,0-3,1.24,6.24,6.24,0,0,0,2.26-.8,13.26,13.26,0,0,0-2.74,1.31l1.18-.53a2.11,2.11,0,0,0-1.45.82,24,24,0,0,0,2.63-1,8.63,8.63,0,0,0-2.7,1.1,23.82,23.82,0,0,0,4.23-2,4.44,4.44,0,0,0-1.95.81l3.49-1.28-2.3.6,3.73-.9-3.21.42,3.46-.75-3,.74,3.4-.48-2.76.26a25.17,25.17,0,0,1,4.32-.56,28,28,0,0,1-3,.14l3.07-.35a10.4,10.4,0,0,0-2.73.24l3-.12a8.46,8.46,0,0,1-2.41,0c1.07,0,2.14-.06,3.21-.16a14.4,14.4,0,0,1-2.93.21,27.48,27.48,0,0,1,3.63,0c-1.06-.06-2.13-.13-3.19-.21l3.61,0a18.38,18.38,0,0,1-2.57-.06,5.66,5.66,0,0,1,2.91.25l-2.45-.26a23.44,23.44,0,0,1,3.54.27l-2.52,0a13,13,0,0,0,2.57.08,5.54,5.54,0,0,0-2-.1l1.94.15-.49.06a1.36,1.36,0,0,0,1.08-.16L81,120.68a8.06,8.06,0,0,1,2.18.39l-6.85,1.54L80,122a34.12,34.12,0,0,0-7.76,1.42,35.28,35.28,0,0,0,5-1.6A45.07,45.07,0,0,0,69.86,124a33.25,33.25,0,0,0,6.33-2.15,15.93,15.93,0,0,0-4.58,1.52c2.1-.54,4.17-1.17,6.19-1.91-2,.47-4,.88-6,1.2a45.21,45.21,0,0,0,6.11-1.44l-4,1.2a26.08,26.08,0,0,0,4.1-.9,28.47,28.47,0,0,0-3.8.66l5.27-1.08a17.79,17.79,0,0,1-5.46,1,20.81,20.81,0,0,1,4.7-1l-5.13,1.12a33.62,33.62,0,0,0,6.29-1.38l-2,.64a20.85,20.85,0,0,0,2.85-.14,20.18,20.18,0,0,1-5,1.34,23.08,23.08,0,0,0,4.5-1.17,4.74,4.74,0,0,0-2.91.65,9.32,9.32,0,0,0,3.27-1,62.94,62.94,0,0,0-8.34,2.71l5.9-1.21a29,29,0,0,0-6.81,1.12,5.21,5.21,0,0,0,3.08-.66,20.45,20.45,0,0,0-5,1.4,13.4,13.4,0,0,1,4.67-.69l-4.3.58a19.87,19.87,0,0,0,3.36-.28,37.47,37.47,0,0,1-4.37.33l4.76,0a8.72,8.72,0,0,0-5,.18c3.63.14,7.19-.85,10.67-1.83l-4.42.9a27.28,27.28,0,0,0,4.68-.72c-1.58.11-3.16.3-4.73.54a22.37,22.37,0,0,0,3.74-.47,22.32,22.32,0,0,0-5.06,1,35.88,35.88,0,0,0,5.89-1.43,12.79,12.79,0,0,0-3.2.7,19.26,19.26,0,0,0,5-1.58,24.63,24.63,0,0,0-3.15,1.14,11.88,11.88,0,0,0,3.29-1,5.17,5.17,0,0,0-2.88,1,12.2,12.2,0,0,0,4-1.39,30.12,30.12,0,0,0-3.27,1.37,23.88,23.88,0,0,0,3.37-1.24,9.59,9.59,0,0,0-3.16,1.23,16.41,16.41,0,0,0,3.42-1.3A10.17,10.17,0,0,0,79.51,123a16.28,16.28,0,0,0,2.63-.89L80,123a5.84,5.84,0,0,0,3.07-1.49,26.54,26.54,0,0,1-4.88.36,6.74,6.74,0,0,0,3.16-1A40.62,40.62,0,0,0,76.1,122a32.81,32.81,0,0,0,3.81-1,13.7,13.7,0,0,0-3.79.9c1.43-.21,2.85-.46,4.27-.76a21.71,21.71,0,0,0-4.75.85l5.53-.94-3.36,1.29,4.12-1a4.45,4.45,0,0,0-2.12.6,3,3,0,0,0,2.16-.53,3.17,3.17,0,0,0-1.77.32l1.1-.45-2.21.62a8,8,0,0,1,2.27-.55,13.41,13.41,0,0,0-3.49.8"/><path class="cls-5" d="M54.26,126.16l2,1a6.13,6.13,0,0,0-1.74-1,5.47,5.47,0,0,0,2,1.54l-1.75-.89,2.73,1.13L55.7,127a30.53,30.53,0,0,0,22.67-.61,11.6,11.6,0,0,0,5-3.7,42.53,42.53,0,0,1-4.78,3.87l.87-1a.89.89,0,0,0-.88.67,8.63,8.63,0,0,0,3.56-2.36l-1.91,2.28a5,5,0,0,0,2.25-2.11c-.69.8-1.37,1.61-2.05,2.41a10,10,0,0,0,2.29-3c-.66.91-1.31,1.8-2,2.71a7.53,7.53,0,0,0,1.58-1.71l-3.92,2.83,1.87-1.6-4.26,1.92a8.39,8.39,0,0,0,3.79-1.58l-4.07,1.74A4,4,0,0,0,79,126.71a11.66,11.66,0,0,0-4.39,1.52,6.43,6.43,0,0,0,2.6-.49,15,15,0,0,0-4.92,1.1,8.06,8.06,0,0,0,3.63-1,17.06,17.06,0,0,0-6.18,1.51,7.54,7.54,0,0,0,3.2-.84,34,34,0,0,0-6.12,1l3.31-.61a18.68,18.68,0,0,1-15-2.53c-.59.75.43,1.71,1.31,2.16l-1.83-1.82,1.66,1.46a19.84,19.84,0,0,1-1.68-1.35,7.2,7.2,0,0,0,4.26,2.65,5.7,5.7,0,0,1-3.12-1.9,2.15,2.15,0,0,1,2,.34,2.3,2.3,0,0,1-1.67.13l.63-.53c-.33.07-.66.12-1,.18a4.44,4.44,0,0,1,2.4.48l-1.18.57,2.8-.18-2.31.63,2.53-.42-2.15.32,1.7-.47a5.6,5.6,0,0,0-2.07.31,9.41,9.41,0,0,0,2.21-.61l-2.29.26,1.45-.51a4,4,0,0,0-1.57.4l2.07-.13a6.09,6.09,0,0,1-1.82,1.08l2.06-.66a3.33,3.33,0,0,1-3.2-.33,9.5,9.5,0,0,0,3.52,1.62A17.48,17.48,0,0,0,56.24,129L60,131a4.5,4.5,0,0,1-3.39-2.12,20,20,0,0,0,14,3.74c4.9-.64,9.48-3.64,11.41-8a8.15,8.15,0,0,1-2.3,3.47l2.7-3.68a13.29,13.29,0,0,1-2.5,3.69l2.16-2.68a32.42,32.42,0,0,1-4.49,4.66,4.7,4.7,0,0,0,2-1.32,19.66,19.66,0,0,1-2.8,1.85,12.11,12.11,0,0,0,4.6-4.74L78.74,129l1.55-1.49a15.7,15.7,0,0,1-10.16,5.36C66.2,133.27,62.07,132.19,54.26,126.16Z"/><path class="cls-5" d="M60.46,128.56l.78.39a9.11,9.11,0,0,0-2.5.05,7.41,7.41,0,0,0,3.43-.48,4.21,4.21,0,0,0-2.4.85,4.89,4.89,0,0,0,2.45-.43,8.28,8.28,0,0,0-2.61.55,8.26,8.26,0,0,0,2.7-.49,4.12,4.12,0,0,0-2.32.88,10.15,10.15,0,0,0,3.29-1A11.2,11.2,0,0,0,59.5,130a12.31,12.31,0,0,0,3.68-.94A7.63,7.63,0,0,0,60,130a23.45,23.45,0,0,0,4.64-.79A9.53,9.53,0,0,0,62,130l5.23-1a41.68,41.68,0,0,0-4.14,1l4.33-.72a65.94,65.94,0,0,1-6.53,1.11,12.16,12.16,0,0,0,3.89-.54l-4.15,0c-.72,0-1.63-.14-1.86-.8,2.49.24,5,.35,7.5.34a21.65,21.65,0,0,0-4.66,1,25,25,0,0,0,4.87-.78l-5.65,1,7.06-1.14L61.53,131l9.25-1.83a29.56,29.56,0,0,0-5.93,1.11,37.34,37.34,0,0,0,7-1.14,30.11,30.11,0,0,0-7.06,1.3,20,20,0,0,0,6.68-1.28,29.53,29.53,0,0,0-6.39,1.41,42.21,42.21,0,0,0,7.4-1.5,25.28,25.28,0,0,0-7.62,2,25.77,25.77,0,0,0,8.93-2.6,45.45,45.45,0,0,0-8.56,2.06,45.14,45.14,0,0,0,10.17-2.35,32.44,32.44,0,0,0-8.09,1.91A35.15,35.15,0,0,0,77,127.8a26.79,26.79,0,0,0-7.69,2,24,24,0,0,0,9.8-2.7,28,28,0,0,0-4.78,2,8.76,8.76,0,0,0,5.62-1.87A45.21,45.21,0,0,0,72.23,130c2.61-.37,5.38-.81,7.34-2.48a7.54,7.54,0,0,0-5.87,2.33,9.42,9.42,0,0,0,4.73-1.33c.62-.37,1.25-1.14.8-1.71a16.92,16.92,0,0,0-3.77,1.85,6.85,6.85,0,0,0,5.19-2.09c-.23-.29-.7-.17-1.05,0l-8,3.26a26.34,26.34,0,0,0,6.52-1.94,71,71,0,0,0-11.29,2.48,70.48,70.48,0,0,0,6.93-1.3,27.27,27.27,0,0,0-7,1.46,68.71,68.71,0,0,0,8.36-.63,40.38,40.38,0,0,0-9.65,1.65,16.57,16.57,0,0,0,5.76-1.12c-3.41-.28-6.89,1.1-10.22.3a45.18,45.18,0,0,0,10.45.65q-3.94.12-7.91-.06a26.82,26.82,0,0,0,5.94.1,55.43,55.43,0,0,1-6,.59l6.32-.35a13.08,13.08,0,0,1-6.94,0,18.59,18.59,0,0,0,8.54.66,23.28,23.28,0,0,0-6.24,0A25.81,25.81,0,0,0,75.43,130a14.75,14.75,0,0,0-6.35,1.75,10.72,10.72,0,0,0,6.82-2.15,18.1,18.1,0,0,0-6.7,2.3,12.18,12.18,0,0,0,6.62-2.43,12.19,12.19,0,0,0-6.45,1.72c2.08.26,4.12-.51,6.06-1.26a11.79,11.79,0,0,0-6,1.89,12.89,12.89,0,0,0,7.31-2.18,6.57,6.57,0,0,0-5.1,2,7,7,0,0,0,6.09-3,16.55,16.55,0,0,0-5.63,2.65,16,16,0,0,0,6.06-3.08q-2.07,1.29-4.1,2.64a7.63,7.63,0,0,0,4.82-3.11A16.1,16.1,0,0,0,74.35,131a7.61,7.61,0,0,0,5.39-4.61,33.65,33.65,0,0,1-3.6,3.46,4.76,4.76,0,0,0,4-3l-4.07,3.41a7.68,7.68,0,0,0,4.33-3.87,40.18,40.18,0,0,0-5,4.9,8.38,8.38,0,0,0,3.9-3.79,10.7,10.7,0,0,0-3.39,2.6,5.64,5.64,0,0,0,2.8-1.53q-2.53,1.74-5.18,3.32a.51.51,0,0,1,.78-.23,9.37,9.37,0,0,1-6,.41,10.1,10.1,0,0,0,3.78-.56,24,24,0,0,0-4.06.32,14.68,14.68,0,0,0,3.63-.2A21.64,21.64,0,0,1,59,129.79l6.19,1.41-4.31-.65c3.32.4,6.64.81,10,1.2l-2.34.13a18.07,18.07,0,0,0,5.43-.73,8.71,8.71,0,0,0-2.65.78,6.11,6.11,0,0,0,2.88-.74,15.72,15.72,0,0,0-3.43.12,21.15,21.15,0,0,0,4.86-1.24,14.42,14.42,0,0,0-3.93.64A11.17,11.17,0,0,0,77,129.15a10,10,0,0,0-4.17.73,7.75,7.75,0,0,0,5.43-2.47,7.44,7.44,0,0,0-3.2,1.66,4.66,4.66,0,0,0,4.34-1.9A2.62,2.62,0,0,0,77,128.41a3.92,3.92,0,0,0,3.26-1.48,4.87,4.87,0,0,0-3,1.82,3.16,3.16,0,0,0,3.09-2.15l-3.76,2.53,1.25-.41-6.54,1.76a10.19,10.19,0,0,1-2.94.5c-1.77,0-3.41-1-5.18-1-1,0-2,.23-3,.3a3.49,3.49,0,0,1-2.78-.84,73.77,73.77,0,0,1,9.57,1.83,12.55,12.55,0,0,1-5.55-.23l5.86.25-2.88-.14a21.42,21.42,0,0,0,6.29-.28,3.31,3.31,0,0,0-1.5.12l3.21-.74"/></g></g></g></svg>