<svg xmlns="http://www.w3.org/2000/svg" viewBox="0 0 112.34 139.51"><defs><style>.cls-1,.cls-3{fill:#f6e3bd;}.cls-1,.cls-5{stroke:#58595b;}.cls-1,.cls-2,.cls-3,.cls-4,.cls-5,.cls-7,.cls-8{stroke-miterlimit:10;stroke-width:0.25px;}.cls-2{fill:#7b7c7e;}.cls-2,.cls-4,.cls-7,.cls-8{stroke:#010101;}.cls-3{stroke:#5a5b5d;}.cls-4,.cls-5{fill:none;}.cls-6{fill:#010101;}.cls-7,.cls-9{fill:#fff;}.cls-8{fill:#e27884;}</style></defs><g id="Layer_2" data-name="Layer 2"><g id="Layer_1-2" data-name="Layer 1"><g id="Layer_2-2" data-name="Layer 2"><path class="cls-1" d="M24.33,61.13l-10.54-6.9S4,50.65,3.25,54.23,1.66,65,3.25,68.55s1.58,7.67,2.37,9.21S8,80.82,8.25,82.1s2.55,3.33,1.94,6.4-1.24,5.11,0,6.39,8.45,1,8.45,1Z"/><path class="cls-2" d="M35.14,15.61s-5.8-6.14-10.28-7.93-12.74,2.05-14.67,4S3,20.73,2.45,24.82s-.26,14.83,0,18.67,2.9,11,4,13,9.22,12,9.22,12Z"/><path class="cls-1" d="M83.9,63.18l7.38-6.91,11.86-7.92s5.72.25,5.37,7.41S106,72.35,105,74.29a70.76,70.76,0,0,0-4.22,10.37c-.26,1.54-1.32,6.14-1.32,6.14s-2.11,3.32-6.59,1.53S83.9,63.18,83.9,63.18Z"/><path class="cls-2" d="M69.67,9.47s3.16-5,6.59-5.71,7.11-2.14,11.33,0A14.62,14.62,0,0,1,94.71,12c.52,2.05.45.26,3.25,1.54s6.5,3.06,7.82,5.88,3.16,16.37,2.63,21.48-.79,11.76-4,15.6-13.18,12-13.18,12Z"/><path class="cls-3" d="M11.94,70.08c-.26-5.37-2.37-23.78-1.58-27.62S12.73,25.59,15.11,23,24.86,12.8,28.55,10.75,35.67,7.17,38,5.89,63.6,1.8,71,5.89s11.33,6.4,14.76,11.51,5.53,6.91,6.06,8.7,1.58,11.76,2.11,13.81S96,51.42,96.29,53s-.27,12.53,0,13.94,2.11,16.75,1.58,19S92.6,105.12,90,110.23s-3.42,12.28-5.53,15.6-10.28,9-13.44,10.49-11.87,3.07-14.77,3.07-16.86-1.54-20.29-3.07S26.7,132,23.8,127.88s-9.22-24.29-10.27-27.62S11.94,70.08,11.94,70.08Z"/><path class="cls-4" d="M39.11,48.5a4.39,4.39,0,0,0-1.87-3.91"/><path class="cls-4" d="M38.12,47.65c-.51-.74-1-1.46-1.63-2.15-.26-.32-.64-.67-1.05-.57"/><path class="cls-4" d="M36.75,47.42a6.31,6.31,0,0,0-1.06-1.07l-.6-.51A3.48,3.48,0,0,0,33.71,45"/><path class="cls-4" d="M31.93,43.93a7.07,7.07,0,0,0-3.47-.47"/><path class="cls-4" d="M33,45.4a2,2,0,0,0-1.51-1.35"/><path class="cls-4" d="M34.75,47l-1.27-1.32"/><path class="cls-4" d="M34.37,44.61a3.34,3.34,0,0,0-2-.56"/><path class="cls-4" d="M32.83,46.62a11.26,11.26,0,0,0-1.66-1.79,3.78,3.78,0,0,0-2.26-.89"/><path class="cls-4" d="M31,45.71a3.89,3.89,0,0,0-3.47-1.48"/><path class="cls-4" d="M28,43.38a5.56,5.56,0,0,0-3.19.87"/><path class="cls-4" d="M27.09,44.13a5.09,5.09,0,0,0-3.45,1.48"/><path class="cls-4" d="M27.81,45.33a6.52,6.52,0,0,0-4.81.74"/><path class="cls-4" d="M24.38,44.42a5.62,5.62,0,0,0-2.85,1.44"/><path class="cls-4" d="M25.47,45.69c1.07-.64,2.43-.8,4.55.27a9.78,9.78,0,0,0-4.49.49C25.6,46.51,25.71,46.52,25.47,45.69Z"/><path class="cls-4" d="M26.91,46a6,6,0,0,0-3.91.86"/><path class="cls-4" d="M25.5,47a4.41,4.41,0,0,0-3.58.86"/><path class="cls-4" d="M22.2,46.07a6.08,6.08,0,0,0-3.41,2.48"/><path class="cls-4" d="M21.91,47.46a3.06,3.06,0,0,0-2.09.77A9.13,9.13,0,0,0,18.38,50"/><path class="cls-4" d="M19.62,49.6A12.32,12.32,0,0,1,15.36,51"/><path class="cls-4" d="M18.38,49.35a19.4,19.4,0,0,0-1.78,3.13"/><path class="cls-4" d="M18.63,51.05A3.1,3.1,0,0,0,17,52.35a8.68,8.68,0,0,0-.85,1.89"/><path class="cls-4" d="M22.56,47.87a4.88,4.88,0,0,0-3.18,2.35"/><path class="cls-4" d="M21.94,46.77a3.63,3.63,0,0,0-2.7,2.35"/><path class="cls-4" d="M24.29,48.25a6,6,0,0,0-4.31,1"/><path class="cls-4" d="M21.54,49.67a7.63,7.63,0,0,0-3.11.47.23.23,0,0,0-.18.13c0,.07.05.16.12.12"/><path class="cls-4" d="M20.34,50.63a7.93,7.93,0,0,0-3.76,1.7s-.07.06-.07.1.09.06.09,0"/><path class="cls-4" d="M17.09,51.72A6.16,6.16,0,0,0,15.3,54"/><path class="cls-4" d="M19,50.5a7.91,7.91,0,0,0-3.34,2.79"/><path class="cls-4" d="M16.93,52.43a6.26,6.26,0,0,0-2.6,3"/><path class="cls-4" d="M15.07,57.26a8.73,8.73,0,0,0,.85-3.92C15.34,54.66,14.76,56,15.07,57.26Z"/><path class="cls-4" d="M63.23,46.48a3.6,3.6,0,0,1,2.34-4.27"/><path class="cls-4" d="M65.21,44.39a18.24,18.24,0,0,1,3-2.26,8.67,8.67,0,0,1,3.59-1.39l-.16.15"/><path class="cls-4" d="M65.22,45.22A9.73,9.73,0,0,1,68.78,43"/><path class="cls-4" d="M64.85,44.24a6.7,6.7,0,0,1,2.38-2.07"/><path class="cls-4" d="M64.88,45.33a7,7,0,0,1,6.37.81A6.36,6.36,0,0,1,74.33,51"/><path class="cls-4" d="M71.36,42.58s.07,0,0,0-.06,0-.1,0a12.86,12.86,0,0,0-3.79,1.78,29,29,0,0,1,3.92-2.93C71.39,41.48,71.45,41.58,71.36,42.58Z"/><path class="cls-4" d="M73.3,42.72a24.75,24.75,0,0,0-3.84,1A4.31,4.31,0,0,1,73.3,42.72Z"/><path class="cls-4" d="M70.16,42.36a15.23,15.23,0,0,1,4.27-.92"/><path class="cls-4" d="M72.51,41.3a10.15,10.15,0,0,1,4-.63c.15,0,.36.15.24.24"/><path class="cls-4" d="M76.43,43.19c.11-.11-.11-.25-.27-.25a8.87,8.87,0,0,0-4.78,1.22C73.2,43.77,75.41,44.19,76.43,43.19Z"/><path class="cls-4" d="M78.25,42.61c-1.6-.74-3.42-1-4.61-.31C75.44,42.23,77.26,42.61,78.25,42.61Z"/><path class="cls-4" d="M82,42.93a5.87,5.87,0,0,0-5.87-1.49c1.93-.16,3.72.91,5.34,1.93C81.47,43.38,81.49,43.39,82,42.93Z"/><path class="cls-4" d="M82.31,45.11s0,.07,0,0,0-.07,0-.09a19.18,19.18,0,0,0-4.79-2.65A7.24,7.24,0,0,1,82.31,45.11Z"/><path class="cls-4" d="M75.35,43.4a15.91,15.91,0,0,1,6.74,2.67"/><path class="cls-4" d="M77.25,43.28a12.45,12.45,0,0,1,3.25,1c.11,0,.24.2.14.28"/><path class="cls-4" d="M80.76,45.94l.22-.07a12.67,12.67,0,0,0-5.75-1.44,11.2,11.2,0,0,1,3.44.89C79.67,45.7,80.68,46.08,80.76,45.94Z"/><path class="cls-4" d="M81.56,43.35c2.18.48,4.51,1,6,2.66,0-.12-.07-.24-.1-.36"/><path class="cls-4" d="M82.42,42.49c1.19,1.45,3.08,2.34,4,4"/><path class="cls-4" d="M86.83,47.41a6.22,6.22,0,0,0-5-2.67q2.44,1.13,4.86,2.31C86.55,47.06,86.38,47.07,86.83,47.41Z"/><path class="cls-4" d="M81.11,46a4,4,0,0,1,1.59-.34c1.17.08,2.09,1.18,3.26,1.14l-.21-.16"/><path class="cls-4" d="M82.19,43.86A13.25,13.25,0,0,1,86,45.14c.28.14.6.41.47.69"/><path class="cls-4" d="M87,48.22l.54-.07a9,9,0,0,0-6.75-2,14.85,14.85,0,0,1,5.8,2.48C86.37,48.62,86.12,48.32,87,48.22Z"/><path class="cls-4" d="M80.62,46.52a17.5,17.5,0,0,1,6.21,3.13"/><path class="cls-4" d="M87.17,46.92A17.29,17.29,0,0,1,91.86,51c.15.19.26.51,0,.6"/><path class="cls-4" d="M93.89,54.51a2.24,2.24,0,0,1-1.54-.76c-.4-.42-.7-.92-1.07-1.37C90,50.87,88,49.93,86.77,48.73q1.92,1.94,3.82,3.88c.06,0,.2,0,.13,0"/><path class="cls-4" d="M85.74,49.29a23,23,0,0,1,4.91,5"/><path class="cls-4" d="M89.46,53.67c.33,1.17.64,2.35.91,3.54"/><path class="cls-4" d="M84.22,48.88c.69.56,1.48,1,2.21,1.5a5,5,0,0,1,1.78,1.93"/><path class="cls-4" d="M81.86,47.77c1.45.73,2.88,1.52,4.27,2.35"/><path class="cls-4" d="M85.13,47a9.57,9.57,0,0,1,5.3,3.44l-.15-.19"/><path class="cls-4" d="M86.68,45.68A8.24,8.24,0,0,1,90.43,48a4.21,4.21,0,0,0,.93,1.12"/><path class="cls-4" d="M80.53,43.78a18.51,18.51,0,0,1,5.2,3.06l-.44,0"/><path class="cls-4" d="M75.19,42.15c1.9.23,3.93.12,5.58,1.06a.74.74,0,0,1-.76.19"/><path class="cls-4" d="M73.09,42.25a7.23,7.23,0,0,1,3.84-.43l2.4.17-.62.21"/><path class="cls-4" d="M76.7,44a40.47,40.47,0,0,1,7.91,1.95l-.7-.11"/><path class="cls-4" d="M81.39,45.23a12.28,12.28,0,0,1,4.41,1.58l-.3,0"/><path class="cls-4" d="M71,43.63A29.14,29.14,0,0,1,78.81,43c.09,0,.19.12.1.13"/><path class="cls-4" d="M44.79,42.42a47.42,47.42,0,0,1-.16,12.65"/><path class="cls-4" d="M50.53,41.33a14.76,14.76,0,0,1,4,10.47c0,1.42-.25,3,.57,4.15"/><path class="cls-4" d="M34.19,40.56a13.72,13.72,0,0,1,8.9,4.33"/><path class="cls-4" d="M60.48,36.88a16.26,16.26,0,0,1,9.08-2.72,37.51,37.51,0,0,1,9.53,1.27c1.91.45,4,1.06,5.07,2.63"/><path class="cls-4" d="M34.54,34.12a27.94,27.94,0,0,1,10.19-1.43,4.51,4.51,0,0,1,3.2,1.07"/><path class="cls-4" d="M57,33.37a24.63,24.63,0,0,1,8.82-1.09"/><path class="cls-4" d="M22.06,34.88A20.78,20.78,0,0,1,33,33.06"/><path class="cls-4" d="M26,28.7c7.25-2.76,15.3-2.53,23.05-1.85A29.84,29.84,0,0,1,55.56,28c1.24.4,2.43.95,3.69,1.25,5.29,1.25,11-2.07,16.16-.29"/><path class="cls-4" d="M43.64,29.1c3-.06,6.07-.09,9.11-.09a2.48,2.48,0,0,1,2,.57"/><path class="cls-4" d="M27.62,25a34.53,34.53,0,0,1,13.23-3.17"/><path class="cls-4" d="M23.49,23.26a71.7,71.7,0,0,1,19.67-4c2.87-.17,5.9-.14,8.42,1.22"/><path class="cls-4" d="M63.34,25a31.9,31.9,0,0,1,15.1.77"/><path class="cls-4" d="M31.78,5.5a9.82,9.82,0,0,1,4.52,4.85"/><path class="cls-4" d="M36.63,2.82a11.44,11.44,0,0,1,3,6.85"/><path class="cls-4" d="M44.86,2.05a13.57,13.57,0,0,1,7,10.67"/><path class="cls-4" d="M52.05,2.7a13.87,13.87,0,0,1,2.67,3.59c1.05,2.32.74,5,.41,7.49"/><path class="cls-4" d="M61.42,1.39c1,3.57,1.95,7.55.18,10.83"/><path class="cls-4" d="M56.92,3.06a18.8,18.8,0,0,1,2.5,4.13,6.15,6.15,0,0,1,.11,4.69"/><path class="cls-4" d="M67.94,1A23.87,23.87,0,0,1,69.3,6.49a7.9,7.9,0,0,1-1.38,5.42"/><path class="cls-4" d="M74.25,2.36a12.44,12.44,0,0,1-3,10.49"/><path class="cls-4" d="M78,3.58a24.53,24.53,0,0,1,3,5.7,8.19,8.19,0,0,1-.29,6.23"/><path class="cls-4" d="M84.16,2.49a17,17,0,0,1,1.43,13"/><path class="cls-4" d="M89.13,6.3a10.58,10.58,0,0,1-.21,12.06"/><path class="cls-4" d="M89.13,2.15c1.22,3.68,2.45,7.6,1.41,11.33-.45,1.62-1.33,3.13-1.57,4.79"/><path class="cls-4" d="M92.12,18.3a13,13,0,0,1,11.45-3.68"/><path class="cls-4" d="M95.81,17.37c4.54-.43,9.49-.76,13.27,1.72"/><path class="cls-4" d="M100.2,20.4a11.21,11.21,0,0,1,9.27,3.6"/><path class="cls-4" d="M102.07,24.34a12.46,12.46,0,0,1,7,8.15"/><path class="cls-4" d="M104.18,30.05a33.48,33.48,0,0,1,4.34,11"/><path class="cls-4" d="M105.54,35.59a16.59,16.59,0,0,1,.5,14.06"/><path class="cls-4" d="M104.63,46.11a8,8,0,0,1-1.43,8.14"/><path class="cls-4" d="M22.43,8.78a7.2,7.2,0,0,0-4.54-.88,21.24,21.24,0,0,0-4.56,1.18l-2.91,1c-.17,0-.37.16-.34.33s.37,0,.21-.06"/><path class="cls-4" d="M27.22,9A20.73,20.73,0,0,0,9.85,14.19a2.51,2.51,0,0,0-.72,1,.9.9,0,0,0,.33,1.06"/><path class="cls-4" d="M16.62,11.39A34.17,34.17,0,0,0,3.39,18.58,7.65,7.65,0,0,0,1.75,20.4l.74.09"/><path class="cls-4" d="M11.71,16.42A29,29,0,0,0,1.52,26.57"/><path class="cls-4" d="M9.48,20.27a19.45,19.45,0,0,0-9.23,13c.23-.15.45-.31.67-.47"/><path class="cls-4" d="M7.19,25.89a24.47,24.47,0,0,0-7,13.27l.66-.32"/><path class="cls-4" d="M5.24,32.71A20.05,20.05,0,0,0,.45,42.34a3.22,3.22,0,0,0,.28,2.5"/><path class="cls-4" d="M4.93,35.17,1.18,45.6a.9.9,0,0,0-.07.66c.08.22.41.33.55.15"/><path class="cls-4" d="M4.17,40a53.66,53.66,0,0,0-1.81,9.37c0,.24.3.56.35.32"/><path class="cls-4" d="M4.87,42.94A24.94,24.94,0,0,0,3.28,53.41"/><path class="cls-4" d="M9,23.55A12.53,12.53,0,0,0,2.09,33.78"/><path class="cls-4" d="M11.39,20.93a36.38,36.38,0,0,0-5.91,3.48,11.71,11.71,0,0,0-4.06,5.32H2.6"/><path class="cls-4" d="M13.08,15.31A8.93,8.93,0,0,0,7.59,18a25.47,25.47,0,0,0-3.68,4.89"/><path class="cls-4" d="M3.83,23.29a1.12,1.12,0,0,1-.91.14c3-4.76,7.91-8.36,13.5-11.47A12.83,12.83,0,0,0,4.6,18.64C4.34,19.12,4.14,19.74,3.83,23.29Z"/><path class="cls-4" d="M3.94,19.89a3,3,0,0,1-2.23.44c3.89-4.55,9.08-8,17.1-11.82a22.13,22.13,0,0,0-9.25,5.38C8.36,15.07,7.88,17.22,3.94,19.89Z"/><path class="cls-4" d="M39.53.32A28.55,28.55,0,0,1,43.82,5.1a9.29,9.29,0,0,1,1.71,6"/><path class="cls-4" d="M44.37.86C46.63,3.91,49,7.21,49.08,11"/><path class="cls-4" d="M50.87,1.84a12.25,12.25,0,0,1,.68,8.92"/><path class="cls-4" d="M55.74.93a8.11,8.11,0,0,1-1.23,10.22c-.11.1-.27.21-.41.13s.06-.33.13-.2"/><path class="cls-4" d="M61.54,1c.58,3.35-.83,6.79-3,9.46"/><path class="cls-4" d="M66.64,2.43a36.51,36.51,0,0,1-6.32,7.81"/><path class="cls-4" d="M70.57,2.75A27.15,27.15,0,0,1,60.1,10.53"/><path class="cls-4" d="M46,.12a16.79,16.79,0,0,1,4.92,2.4,15.46,15.46,0,0,1,3.3,4.14c.81,1.31,1.61,2.64,2.39,4"/><path class="cls-4" d="M53.27,2.49A25.8,25.8,0,0,1,57.5,9.16"/><path class="cls-4" d="M38.89,4.62a27.59,27.59,0,0,1,12.13,8"/><path class="cls-4" d="M73.85,3.1a19.18,19.18,0,0,1-1.71,5.75,7.11,7.11,0,0,1-4.56,3.76"/><path class="cls-4" d="M109.52,25.82c-1.51-.74-2.31-2.33-3.45-3.54-2.35-2.51-6-3.29-8.55-3.6,2.15-.76,4.41-1.52,6.67-1.21,3,.41,5.36,2.58,7.5,4.64a1.68,1.68,0,0,1,.51.71C112.28,23.11,112.13,23.47,109.52,25.82Z"/><path class="cls-4" d="M109.49,28c0,.19.33.21.44.05a.6.6,0,0,0,0-.54c-.58-1.74-2.43-2.73-4.16-3.47-2.33-1-4.73-1.86-6.38-.72,4,1.51,8.16,3.26,10.38,6.77C109.58,30.14,109.38,30.21,109.49,28Z"/><path class="cls-4" d="M102.82,25a23.21,23.21,0,0,0,5.34,5.54l-2.68-1"/><path class="cls-4" d="M110.61,38.36c-2-3.86-4.57-7.44-8.65-8.78,1.07,2.16,2.78,4,4.17,6S108.61,39.9,110.61,38.36Z"/><path class="cls-4" d="M104.84,34a25.64,25.64,0,0,1,3.84,10.07"/><path class="cls-4" d="M102.2,38.15c1.63,1.63,3.31,3.34,4,5.51.58,1.78.44,3.72,1,5.51"/><path class="cls-4" d="M105.47,50.69a1.39,1.39,0,0,0,1-1.16,4,4,0,0,0-.19-1.63c-.47-1.71-1-3.41-3.48-4.3,1.12,3.47,2.22,7.27.87,10.67,0,.1-.1.21-.21.21S103.43,54.26,105.47,50.69Z"/><path class="cls-4" d="M104.93,46a46.52,46.52,0,0,0-1.21,6.31"/><path class="cls-4" d="M91,13.8A26.48,26.48,0,0,0,91.09,6"/><path class="cls-4" d="M92,11.92a7.82,7.82,0,0,0-1-6.59"/><path class="cls-5" d="M6.33,58.25a2.23,2.23,0,0,0-1.85,2A6.32,6.32,0,0,0,4.92,63l1.43,4.43"/><path class="cls-5" d="M10.46,69.79a3.08,3.08,0,0,0-2-.25c.33,2.4.65,4.81,1,7.21.11.79.57,1.83,1.36,1.62"/><path class="cls-5" d="M105.68,57a3.79,3.79,0,0,1,.66,5.08"/><path class="cls-5" d="M102.32,63.48A3.29,3.29,0,0,1,105,66a7.42,7.42,0,0,1-.2,3.82,25.15,25.15,0,0,1-2.18,5.58c-.37.68-.89,1.43-1.68,1.49"/><path class="cls-5" d="M100.15,67.6a4.91,4.91,0,0,1-.4,5.3"/><path class="cls-5" d="M101.77,79.69a10.12,10.12,0,0,0-2.1,6.44"/><path class="cls-4" d="M61.74,65a16.08,16.08,0,0,0,5.72-3.52c1.12-1.08,2.13-2.36,3.59-2.92a7.51,7.51,0,0,1,3.56-.25,12.9,12.9,0,0,1,4.58,1.3A6.35,6.35,0,0,1,82.27,63"/><path class="cls-4" d="M65.81,63.37a15.12,15.12,0,0,0,15.69-.82c.22-.15.41-.52.15-.6"/><path class="cls-6" d="M73,59.17a3.25,3.25,0,0,0-3.63,3.29,2,2,0,0,0,.47,1.16,2.82,2.82,0,0,0,1.54.71,6.75,6.75,0,0,0,3,.1,3.13,3.13,0,0,0,2.27-1.8,2.85,2.85,0,0,0-1.51-3.39C73.9,58.63,72.36,58.81,73,59.17Z"/><path class="cls-7" d="M72,60.48,70.8,62.63a1.62,1.62,0,0,0,2.08-.05,1.35,1.35,0,0,0,0-2C72.25,60.13,71.21,60.34,72,60.48Z"/><path class="cls-4" d="M21.86,63.51l6.28-2.2a8,8,0,0,1,2.62-.6,8,8,0,0,1,3.57,1.2l7.32,3.86"/><path class="cls-4" d="M23.15,63.77c2.47.64,4.85,1.65,7.37,2s5.37-.06,7.12-1.87"/><path class="cls-6" d="M30.93,61.44l-2.66.64c-.28.94-.52,2.09.18,2.81a2.88,2.88,0,0,0,1.71.66,5.68,5.68,0,0,0,2.9-.16,2.11,2.11,0,0,0,1.42-2.25c-.22-1-1.33-1.51-2.34-1.74C30.58,61,28.58,61.27,30.93,61.44Z"/><path class="cls-7" d="M30.39,62.46a3.38,3.38,0,0,0-.83,1.68,2.57,2.57,0,0,0,2,0,1.21,1.21,0,0,0,.27-1.72C31.35,61.88,30.46,61.85,30.39,62.46Z"/><path class="cls-4" d="M67.26,60a27.67,27.67,0,0,1,3.57-3.09,8.19,8.19,0,0,1,2-1.13,6.78,6.78,0,0,1,2.33-.33A10.5,10.5,0,0,1,84.61,62"/><path class="cls-4" d="M71.75,72.51a21.76,21.76,0,0,0,12.44-7.17c-1.6,3.41-5.45,5.2-9,6.55C73.76,72.4,72.31,72.9,71.75,72.51Z"/><path class="cls-4" d="M85.92,59a17.31,17.31,0,0,1,3.94-.9C91.21,58,92.63,58.3,85.92,59Z"/><path class="cls-4" d="M86.83,61.55a10.11,10.11,0,0,1,7.85,1c.45.27.93.74.73,1.22"/><path class="cls-4" d="M86.41,64.66A6.71,6.71,0,0,1,94,67.49"/><path class="cls-4" d="M20.56,62.93c1.73-3.21,5.78-4.68,9.51-4.58,2.66.07,5.54,1,6.92,3.19"/><path class="cls-4" d="M24.12,58a11.87,11.87,0,0,1,12.42.9"/><path class="cls-4" d="M32.28,53a12.07,12.07,0,0,1,8.43,3.46A11.33,11.33,0,0,1,44,64.75"/><path class="cls-4" d="M13.8,59.47a6.31,6.31,0,0,0,6.34,2.84"/><path class="cls-4" d="M13.51,63.62a11.76,11.76,0,0,0,4-.25"/><path class="cls-4" d="M13.3,67.81a7.53,7.53,0,0,1,4.14-3"/><path class="cls-4" d="M22.15,65.45a8.5,8.5,0,0,0,8,3.8"/><path class="cls-4" d="M20.12,67.81a9.13,9.13,0,0,0,9.11,3.4"/><path class="cls-4" d="M43.46,68.66A9.66,9.66,0,0,1,35,76.19"/><path class="cls-4" d="M47,63.84c-.28,5-.6,10.27-3.13,14.68"/><path class="cls-4" d="M40.85,81.37a6,6,0,0,0-3.17,3.74c-.48,1.48-.45,3.33.78,4.32.89.7,2.11.76,3.4-.55,1.25-.38,2.71-.75,3.79,0,.76.51,1.1,1.43,1.74,2.07a5.5,5.5,0,0,0,3.25,1.29,8.66,8.66,0,0,0,5.19-.66c.86-.46,1.58-1.13,2.44-1.59,1.25-.66,2.78-.82,3.16,1.23,1.29.22,2.73.42,3.8-.31a4,4,0,0,0,1.2-1.44c1.14-2,1.68-4.51.68-6.58-1.21-2.51-4.18-3.63-6.88-4.52"/><path class="cls-4" d="M57,61.7a70.78,70.78,0,0,0,.93,17"/><path class="cls-4" d="M35.19,86.64c-.87,2.65-2.82,4.79-4.52,7s-3.24,4.81-3,7.58,2,5,2.43,7.64c.2,1.19.14,2.4.35,3.59a4.08,4.08,0,0,0,1.85,3"/><path class="cls-4" d="M71.41,89.21a31.86,31.86,0,0,1,5.26,4.91,10.47,10.47,0,0,1,2.49,6.53c0,2.67-1.48,5.11-2.86,7.42L71,117"/><path class="cls-4" d="M84.87,109.68c-.89,3.1-2.83,5.79-4.74,8.41-3.65,5-7.59,10.26-13.37,12.8"/><path class="cls-4" d="M25.53,116.71l3.89,5.55a18,18,0,0,0,2.76,3.33,18.66,18.66,0,0,0,6.08,3.08l4.58,1.65"/><path class="cls-4" d="M50.84,131.69a27.46,27.46,0,0,0,10.38-.08"/><path class="cls-8" d="M71.51,102.57a13.81,13.81,0,0,0-12.43-.83,10.51,10.51,0,0,1-2.55,1,9.15,9.15,0,0,1-4.1-.71c-6-1.82-12.68-1.24-17.57,1.79a26.62,26.62,0,0,1,13.64-1.29c2.59.44,5.15,1.27,7.77,1.09a34,34,0,0,0,4.78-1A27.49,27.49,0,0,1,71.51,102.57Z"/><path class="cls-8" d="M35.12,104c1.56,2.41,3.26,5,5.93,6.15a13.14,13.14,0,0,0,2.15.69,38.31,38.31,0,0,0,11.59,1.09,19.19,19.19,0,0,0,8.62-2.22c3.08-1.8,5.19-4.79,7.74-6.74a13.65,13.65,0,0,1-4.86,9.82A21,21,0,0,1,56,117.36a26.46,26.46,0,0,1-9.51-1.06A18.09,18.09,0,0,1,41.12,114a17.28,17.28,0,0,1-3.49-3.89C36.31,108.27,34.94,106.29,35.12,104Z"/><path class="cls-9" d="M39.51,103.05c0,.76-.1,1.52-.14,2.28a.89.89,0,0,0,.05.46,1,1,0,0,0,.54.4l1.74.73,0-4.45C40.65,102.45,39.52,102.83,39.51,103.05Z"/><path class="cls-9" d="M42,106.88l1.88.51-.25-4.76C42.92,102.24,42.05,102.18,42,106.88Z"/><path class="cls-9" d="M44.34,106.44a5.84,5.84,0,0,0,2.83,1,.62.62,0,0,0,.55-.15.61.61,0,0,0,.1-.33,21,21,0,0,0,0-3,2.17,2.17,0,0,0-.3-1.15c-.51-.69-1.59-.62-2.45-.46a1.18,1.18,0,0,0-.69.27,1.13,1.13,0,0,0-.23.84l0,2.58C44.17,106.5,44.26,107.06,44.34,106.44Z"/><path class="cls-9" d="M48.24,102.93a23.27,23.27,0,0,0,.13,4.72,26.83,26.83,0,0,0,4.39.27.9.9,0,0,0,.73-.24.86.86,0,0,0,.09-.69c-.12-.87-.24-1.74-.37-2.62a1,1,0,0,0-.22-.58,1.12,1.12,0,0,0-.48-.22l-3.38-.87C48.76,102.61,48.28,102.53,48.24,102.93Z"/><path class="cls-9" d="M54,104a14.17,14.17,0,0,0,.15,3.9l2.68-.44a1.37,1.37,0,0,0,.9-.38,1.34,1.34,0,0,0,.21-.69c.07-.72.15-1.44.23-2.16a.37.37,0,0,0-.05-.29c-.06-.09-.18-.1-.29-.11A14.54,14.54,0,0,0,54,104Z"/><path class="cls-9" d="M59,103.25a10.38,10.38,0,0,0,.15,3.47l2.07-.26a.69.69,0,0,0,.43-.16.66.66,0,0,0,.14-.39,12.54,12.54,0,0,0-.08-3A16.7,16.7,0,0,1,59,103.25Z"/><path class="cls-9" d="M63.12,103a5.11,5.11,0,0,0,.48,3.19,2.18,2.18,0,0,0,1.28-1.26,6.37,6.37,0,0,0,.39-1.78A4.35,4.35,0,0,0,63.12,103Z"/><path class="cls-9" d="M66.27,102.79l-.15,1.75A1.67,1.67,0,0,0,67.5,104a1,1,0,0,0-.09-1.36C67,102.29,66.3,102.46,66.27,102.79Z"/><path class="cls-9" d="M41.31,109.91c.09-.63.18-1.25.34-2l1.6,0a.76.76,0,0,1,.47.11c.2.15.19.46.15.7l-.24,1.6c-.35.26-.86,0-1.21-.25S41.68,109.55,41.31,109.91Z"/><path class="cls-9" d="M44.33,111.07c.05-1,.12-2.07.12-2.58a5.74,5.74,0,0,1,1.87-.44.52.52,0,0,1,.46.11.52.52,0,0,1,.08.39c0,.76-.09,1.51-.13,2.27a.53.53,0,0,1-.13.39.54.54,0,0,1-.37.11A6.17,6.17,0,0,1,44.33,111.07Z"/><path class="cls-9" d="M47.59,107.9c0,1.15,0,2.29-.05,3.43a.34.34,0,0,0,.06.24.33.33,0,0,0,.24.07,13.11,13.11,0,0,0,2.34-.11,6.79,6.79,0,0,0,0-3.38,2.81,2.81,0,0,1-1.58-.2C48,107.82,47.36,107.82,47.59,107.9Z"/><path class="cls-9" d="M50.31,108.62a9.09,9.09,0,0,1,3.12-.21,9.24,9.24,0,0,1,0,2.35,1.11,1.11,0,0,1-1.53,1C51.43,111.73,50.94,111.56,50.31,108.62Z"/><path class="cls-9" d="M54.23,111.52a4.06,4.06,0,0,1,.42-2.83,4.8,4.8,0,0,1,1.6-.62c.42-.08,1,0,1.13.34a1,1,0,0,1,0,.58c-.12.62-.25,1.24-.37,1.86a1,1,0,0,1-.15.41.89.89,0,0,1-.42.28A2.59,2.59,0,0,1,54.23,111.52Z"/><path class="cls-9" d="M57.83,110.81a25.19,25.19,0,0,1,.2-2.66,2.6,2.6,0,0,0,.92-.26.73.73,0,0,1,.87.16.8.8,0,0,1,.07.53c-.08.81-.15,1.62-.24,2.44A11.44,11.44,0,0,1,57.83,110.81Z"/><path class="cls-9" d="M60.61,109.84c.1-.84.19-1.68.29-2.27.67,0,1.3-.75,1.89-.44a1.09,1.09,0,0,1,.4,1,2.67,2.67,0,0,1-.73,1.79A1.2,1.2,0,0,1,60.61,109.84Z"/><path class="cls-9" d="M64.1,108.61a16.93,16.93,0,0,0,.13-1.82l1.37.07A4.44,4.44,0,0,1,64.1,108.61Z"/></g></g></g></svg>