<svg width="900" height="700"><g transform="translate(0,30)"><path d="M296.66666666666663,166.6666666666666L593.3333333333333,99.99999999999994" style="fill: none; opacity: 0.75; stroke-width: 3px; stroke: rgb(237, 23, 101);"></path><path d="M296.66666666666663,133.33333333333331L593.3333333333333,99.99999999999994" style="fill: none; opacity: 0.75; stroke-width: 3px; stroke: rgb(229, 89, 37);"></path><path d="M296.66666666666663,186.66666666666663L593.3333333333333,113.33333333333329" style="fill: none; opacity: 0.75; stroke-width: 3px; stroke: rgb(4, 101, 171);"></path><path d="M296.66666666666663,173.3333333333333L593.3333333333333,99.99999999999994" style="fill: none; opacity: 0.75; stroke-width: 3px; stroke: rgb(23, 142, 206);"></path><path d="M296.66666666666663,133.33333333333331L593.3333333333333,13.333333333333371" style="fill: none; opacity: 0.75; stroke-width: 3px; stroke: rgb(243, 207, 45);"></path><path d="M296.66666666666663,280L593.3333333333333,19.999999999999886" style="fill: none; opacity: 0.75; stroke-width: 3px; stroke: rgb(202, 204, 44);"></path><g transform="translate(296.66666666666663)" fill="none" font-size="10" font-family="sans-serif" text-anchor="start"><path class="domain" stroke="#000" d="M6,300.5H0.5V0.5H6"></path><g class="tick" opacity="1" transform="translate(0,300.5)"><line stroke="#000" x2="6"></line><text fill="#000" x="9" dy="0.32em">0.70</text></g><g class="tick" opacity="1" transform="translate(0,267.16666666666663)"><line stroke="#000" x2="6"></line><text fill="#000" x="9" dy="0.32em">0.75</text></g><g class="tick" opacity="1" transform="translate(0,233.83333333333326)"><line stroke="#000" x2="6"></line><text fill="#000" x="9" dy="0.32em">0.80</text></g><g class="tick" opacity="1" transform="translate(0,200.49999999999997)"><line stroke="#000" x2="6"></line><text fill="#000" x="9" dy="0.32em">0.85</text></g><g class="tick" opacity="1" transform="translate(0,167.1666666666666)"><line stroke="#000" x2="6"></line><text fill="#000" x="9" dy="0.32em">0.90</text></g><g class="tick" opacity="1" transform="translate(0,133.83333333333331)"><line stroke="#000" x2="6"></line><text fill="#000" x="9" dy="0.32em">0.95</text></g><g class="tick" opacity="1" transform="translate(0,100.49999999999994)"><line stroke="#000" x2="6"></line><text fill="#000" x="9" dy="0.32em">1.00</text></g><g class="tick" opacity="1" transform="translate(0,67.1666666666666)"><line stroke="#000" x2="6"></line><text fill="#000" x="9" dy="0.32em">1.05</text></g><g class="tick" opacity="1" transform="translate(0,33.8333333333332)"><line stroke="#000" x2="6"></line><text fill="#000" x="9" dy="0.32em">1.10</text></g><g class="tick" opacity="1" transform="translate(0,0.5)"><line stroke="#000" x2="6"></line><text fill="#000" x="9" dy="0.32em">1.15</text></g><text style="text-anchor: middle; fill: black;" y="-9">1995</text></g><g transform="translate(593.3333333333333)" fill="none" font-size="10" font-family="sans-serif" text-anchor="start"><path class="domain" stroke="#000" d="M6,300.5H0.5V0.5H6"></path><g class="tick" opacity="1" transform="translate(0,300.5)"><line stroke="#000" x2="6"></line><text fill="#000" x="9" dy="0.32em">0.70</text></g><g class="tick" opacity="1" transform="translate(0,267.16666666666663)"><line stroke="#000" x2="6"></line><text fill="#000" x="9" dy="0.32em">0.75</text></g><g class="tick" opacity="1" transform="translate(0,233.83333333333326)"><line stroke="#000" x2="6"></line><text fill="#000" x="9" dy="0.32em">0.80</text></g><g class="tick" opacity="1" transform="translate(0,200.49999999999997)"><line stroke="#000" x2="6"></line><text fill="#000" x="9" dy="0.32em">0.85</text></g><g class="tick" opacity="1" transform="translate(0,167.1666666666666)"><line stroke="#000" x2="6"></line><text fill="#000" x="9" dy="0.32em">0.90</text></g><g class="tick" opacity="1" transform="translate(0,133.83333333333331)"><line stroke="#000" x2="6"></line><text fill="#000" x="9" dy="0.32em">0.95</text></g><g class="tick" opacity="1" transform="translate(0,100.49999999999994)"><line stroke="#000" x2="6"></line><text fill="#000" x="9" dy="0.32em">1.00</text></g><g class="tick" opacity="1" transform="translate(0,67.1666666666666)"><line stroke="#000" x2="6"></line><text fill="#000" x="9" dy="0.32em">1.05</text></g><g class="tick" opacity="1" transform="translate(0,33.8333333333332)"><line stroke="#000" x2="6"></line><text fill="#000" x="9" dy="0.32em">1.10</text></g><g class="tick" opacity="1" transform="translate(0,0.5)"><line stroke="#000" x2="6"></line><text fill="#000" x="9" dy="0.32em">1.15</text></g><text style="text-anchor: middle; fill: black;" y="-9">2018</text></g></g></svg>