<svg xmlns="http://www.w3.org/2000/svg" viewBox="0 0 504.64 543.95"><defs><style>.cls-1,.cls-10,.cls-8{fill:#fff;}.cls-1,.cls-2,.cls-3{stroke:#ddd6e0;}.cls-2{fill:#e5e3e6;fill-opacity:0.4;}.cls-3,.cls-4,.cls-5{fill:none;}.cls-4{stroke:#7cb2ce;}.cls-4,.cls-5{stroke-miterlimit:10;}.cls-4,.cls-5,.cls-6{stroke-width:3px;}.cls-4,.cls-7{opacity:0.9;}.cls-5{stroke:#e27884;}.cls-6{fill:#f387ab;fill-opacity:0;stroke:#f9df81;}.cls-7{fill:#7cb2ce;}.cls-8{stroke:#436db5;}.cls-9{fill:#e27884;}.cls-10{stroke:#ad8fc3;}.cls-11{fill:#f9df81;}.cls-12{isolation:isolate;}.cls-12,.cls-13{font-size:17px;}.cls-12,.cls-13,.cls-15{fill:#5d6167;}.cls-12,.cls-13,.cls-14,.cls-15{font-family:ArialMT, Arial;}.cls-14{font-size:17px;fill:#231f1f;}.cls-15{font-size:12.75px;}</style></defs><g id="Layer_2" data-name="Layer 2"><g id="Layer_1-2" data-name="Layer 1"><polygon class="cls-1" points="238.2 84.54 424.21 191.93 424.21 406.72 238.2 514.12 52.19 406.72 52.19 191.93 238.2 84.54"/><polygon class="cls-2" points="238.2 127.5 387.01 213.41 387.01 385.25 238.2 471.16 89.39 385.25 89.39 213.41 238.2 127.5"/><polygon class="cls-1" points="238.2 170.46 349.81 234.89 349.81 363.77 238.2 428.2 126.59 363.77 126.59 234.89 238.2 170.46"/><polygon class="cls-2" points="238.2 213.41 312.61 256.37 312.61 342.29 238.2 385.25 163.79 342.29 163.79 256.37 238.2 213.41"/><polygon class="cls-1" points="238.2 256.37 275.4 277.85 275.4 320.81 238.2 342.29 201 320.81 201 277.85 238.2 256.37"/><line class="cls-3" x1="238.2" y1="299.33" x2="238.2" y2="84.54"/><line class="cls-3" x1="238.2" y1="299.33" x2="424.21" y2="191.93"/><line class="cls-3" x1="238.2" y1="299.33" x2="424.21" y2="406.72"/><line class="cls-3" x1="238.2" y1="299.33" x2="238.2" y2="514.12"/><line class="cls-3" x1="238.2" y1="299.33" x2="52.19" y2="406.72"/><line class="cls-3" x1="238.2" y1="299.33" x2="52.19" y2="191.93"/><path class="cls-4" d="M238.2,110.31l65.66,151.11L312.05,342l-73.85-2.47-20.65-28.24,3.16-22Z"/><path class="cls-5" d="M238.2,168.09l114.4,65.19-42.78,107.4-71.62,2.68-26.41-28.78,11-24.16Z"/><path class="cls-6" d="M238.2,232.74l133-10.2L320.42,346.8l-82.22,1.5-38.69-26.63L222,290Z"/><circle class="cls-7" cx="238.2" cy="106.06" r="5.68"/><circle class="cls-7" cx="303.86" cy="261.42" r="5.68"/><circle class="cls-7" cx="312.05" cy="341.96" r="5.68"/><circle class="cls-7" cx="238.2" cy="339.49" r="5.68"/><circle class="cls-7" cx="217.55" cy="311.25" r="5.68"/><circle class="cls-8" cx="220.71" cy="289.23" r="5.68"/><circle class="cls-9" cx="238.2" cy="168.09" r="5.68"/><circle class="cls-9" cx="352.6" cy="233.28" r="5.68"/><circle class="cls-9" cx="309.82" cy="340.68" r="5.68"/><circle class="cls-9" cx="238.2" cy="343.36" r="5.68"/><circle class="cls-9" cx="211.79" cy="314.58" r="5.68"/><circle class="cls-10" cx="222.76" cy="290.42" r="5.68"/><circle class="cls-11" cx="238.2" cy="232.74" r="5.68"/><circle class="cls-11" cx="371.2" cy="222.54" r="5.68"/><circle class="cls-11" cx="320.42" cy="346.8" r="5.68"/><circle class="cls-11" cx="238.2" cy="348.3" r="5.68"/><circle class="cls-11" cx="199.51" cy="321.67" r="5.68"/><circle class="cls-11" cx="222.02" cy="289.99" r="5.68"/><text class="cls-12" transform="translate(145.19 67.18)">Accompany with family</text><text class="cls-13" transform="translate(400.68 143.46)">Rest and <tspan x="0" y="20.4">entertainment</tspan></text><text class="cls-13" transform="translate(433.08 419.96)">Learning</text><text class="cls-13" transform="translate(201 538.43)">Excercise</text><text class="cls-13" transform="translate(0 428.41)">Social</text><text class="cls-13" transform="translate(0.78 173.09)">Part-time <tspan x="0" y="20.4">job</tspan></text><circle class="cls-7" cx="46.63" cy="11.63" r="11.63"/><text class="cls-14" transform="translate(63.06 16.59)">Mother</text><circle class="cls-9" cx="149.74" cy="11.63" r="11.63"/><text class="cls-14" transform="translate(169.11 16.59)">Married without child</text><circle class="cls-11" cx="354.12" cy="11.63" r="11.63"/><text class="cls-14" transform="translate(370.42 16.59)">Unmarried</text><text class="cls-15" transform="translate(194.27 120.37)">88.8%</text><text class="cls-15" transform="translate(306.37 245.42)">61.5%</text><text class="cls-15" transform="translate(388.98 229.03)">71.5%</text></g></g></svg>